<svg width="24" height="24" viewBox="0 0 24 24" fill="none" xmlns="http://www.w3.org/2000/svg">
<path fill-rule="evenodd" clip-rule="evenodd" d="M12 15.722C12.0001 15.722 12.0002 15.722 12.0002 15.722V15.722C12.4761 15.6876 12.9178 15.4857 13.2583 15.1452L17.7083 10.6953C18.0972 10.3073 18.0972 9.67925 17.7083 9.29025C17.3212 8.90325 16.6923 8.90325 16.3042 9.29025L12 13.5955L7.69575 9.29025C7.30775 8.90325 6.67875 8.90325 6.29175 9.29025C5.90275 9.67925 5.90275 10.3073 6.29175 10.6953L10.7417 15.1452C11.0822 15.4857 11.5239 15.6876 11.9998 15.722V15.722C11.9998 15.722 11.9999 15.722 12 15.722Z" fill="#333333"/>
</svg>
